<?xml version="1.0" standalone="no"?>
<!DOCTYPE svg PUBLIC "-//W3C//DTD SVG 20010904//EN"
 "http://www.w3.org/TR/2001/REC-SVG-20010904/DTD/svg10.dtd">
<svg version="1.0" xmlns="http://www.w3.org/2000/svg"
 width="833.000000pt" height="833.000000pt" viewBox="0 0 833.000000 833.000000"
 preserveAspectRatio="xMidYMid meet">
<metadata>
Created by potrace 1.14, written by Peter Selinger 2001-2017
</metadata>
<g transform="translate(0.000000,833.000000) scale(0.100000,-0.100000)"
fill="#000000" stroke="none">
<path d="M0 4165 l0 -4165 4165 0 4165 0 0 4165 0 4165 -4165 0 -4165 0 0
-4165z m8200 0 l0 -4035 -4035 0 -4035 0 0 4035 0 4035 4035 0 4035 0 0 -4035z"/>
<path d="M2480 6229 c-718 -64 -1268 -581 -1454 -1369 -50 -212 -61 -315 -61
-605 1 -357 27 -543 116 -810 240 -725 837 -1131 1619 -1102 316 12 535 88
844 291 66 43 134 83 152 88 77 21 122 -45 146 -212 l13 -95 57 -3 57 -3 -5
488 c-2 268 -7 557 -10 641 l-6 152 -57 0 -57 0 -27 -184 c-50 -339 -104 -499
-225 -662 -152 -205 -373 -328 -681 -379 -140 -24 -372 -17 -480 15 -445 128
-762 553 -880 1180 -41 216 -46 287 -46 625 1 255 5 359 18 458 41 302 113
553 222 772 170 343 427 557 730 610 213 37 485 1 703 -93 285 -123 497 -369
581 -675 20 -74 64 -285 76 -369 l7 -48 58 0 58 0 6 153 c3 83 8 358 10 610
l4 457 -57 0 -57 0 -12 -83 c-33 -227 -92 -274 -229 -180 -151 105 -212 143
-308 190 -182 91 -301 124 -515 143 -129 11 -174 11 -310 -1z"/>
<path d="M4132 6109 l3 -54 85 -7 c221 -17 294 -65 325 -217 13 -62 15 -270
13 -1574 -3 -1432 -4 -1505 -22 -1557 -37 -111 -107 -150 -304 -172 l-103 -11
3 -51 c2 -35 7 -50 16 -48 47 9 779 12 1072 4 218 -6 407 -7 490 -1 518 34
909 197 1221 509 273 272 430 607 496 1055 24 165 23 539 -1 718 -58 426 -200
742 -446 987 -121 121 -216 189 -368 265 -181 90 -402 153 -657 187 -107 14
-436 16 -1175 9 -228 -3 -468 -1 -533 4 l-118 7 3 -53z m1503 -53 c137 -6 308
-35 425 -72 417 -131 667 -421 781 -904 100 -423 101 -1118 3 -1560 -68 -304
-174 -512 -345 -675 -236 -225 -549 -328 -1004 -329 -155 -1 -201 2 -247 17
-103 31 -157 98 -178 218 -8 45 -10 514 -8 1574 3 1439 4 1513 22 1565 22 68
83 130 146 149 48 15 191 28 250 24 19 -1 89 -5 155 -7z"/>
</g>
</svg>
